<svg width="20" height="20" viewBox="0 0 20 20" fill="none" xmlns="http://www.w3.org/2000/svg">
<path d="M3.81603 0C3.46763 0 3.1335 0.138404 2.88715 0.384754C2.6408 0.631103 2.50239 0.965239 2.50239 1.31363C2.50239 1.66202 2.6408 1.99616 2.88715 2.24251C3.1335 2.48886 3.46763 2.62726 3.81603 2.62726H15.5161L0.418097 17.7253C0.289029 17.8454 0.185515 17.9906 0.11372 18.1516C0.0419257 18.3127 0.00330527 18.4868 0.000205099 18.6632C-0.00291259 18.8396 0.0295422 19.0147 0.0956091 19.1783C0.161676 19.3419 0.260006 19.4905 0.384749 19.6152C0.509491 19.7399 0.658072 19.8383 0.821646 19.9043C0.985219 19.9704 1.16042 20.0029 1.3368 19.9998C1.51318 19.9966 1.68714 19.9581 1.84828 19.8863C2.00941 19.8145 2.15444 19.711 2.2747 19.5819L17.3727 4.48386V16.184C17.3727 16.5323 17.5111 16.8665 17.7575 17.1128C18.0038 17.3592 18.338 17.4976 18.6864 17.4976C19.0347 17.4976 19.3689 17.3592 19.6152 17.1128C19.8616 16.8665 20 16.5323 20 16.184V1.31363C19.9991 1.13901 19.9634 0.966342 19.8949 0.805694C19.7996 0.581746 19.6446 0.388221 19.447 0.246174C19.2493 0.104127 19.0165 0.0189864 18.7739 0H3.81603Z" fill="#595959"/>
</svg>
